<svg width="250" height="250" xmlns="http://www.w3.org/2000/svg">

 <g>
  <title>background</title>
  <rect fill="none" id="canvas_background" height="402" width="582" y="-1" x="-1"/>
 </g>
 <g>
  <title>Layer 1</title>
  <g id="gr_x5F_big_10_">
   <g stroke="null" id="svg_10">
    <path fill="#191919" stroke="null" id="svg_9" d="m186.675935,112.304013l-50.979944,0l0,-50.979944l-20.391978,0l0,50.979944l-50.979944,0l0,20.391978l50.979944,0l0,50.979944l20.391978,0l0,-50.979944l50.979944,0l0,-20.391978z"/>
   </g>
   <g stroke="null" id="svg_15">
    <path fill="#191919" stroke="null" id="svg_14" d="m46.361712,188.359718l-14.339153,14.339153c-17.873451,-21.10481 -28.698502,-48.369396 -28.698502,-78.198873s10.825051,-57.094064 28.688404,-78.208971l14.339153,14.339153c-14.248271,17.419041 -22.831567,39.664924 -22.831567,63.869818s8.583296,46.450777 22.841665,63.85972zm179.118235,-63.85972c0,24.204894 -8.583296,46.450777 -22.841665,63.85972l14.339153,14.339153c17.873451,-21.10481 28.698502,-48.369396 28.698502,-78.198873s-10.825051,-57.094064 -28.698502,-78.208971l-14.339153,14.339153c14.258369,17.419041 22.841665,39.664924 22.841665,63.869818zm-164.83967,-78.138285c17.408943,-14.258369 39.654826,-22.841665 63.85972,-22.841665s46.450777,8.583296 63.85972,22.841665l14.339153,-14.339153c-21.114908,-17.873451 -48.379494,-28.698502 -78.198873,-28.698502c-29.829477,0 -57.094064,10.825051 -78.198873,28.698502l14.339153,14.339153zm127.719441,156.27657c-17.408943,14.258369 -39.654826,22.841665 -63.85972,22.841665s-46.450777,-8.583296 -63.85972,-22.841665l-14.339153,14.339153c21.10481,17.873451 48.369396,28.698502 78.198873,28.698502c29.819379,0 57.083966,-10.825051 78.198873,-28.698502l-14.339153,-14.339153z"/>
   </g>
  </g>
 </g>
</svg>